<svg width="128" height="128" viewBox="0 0 128 128" fill="none" xmlns="http://www.w3.org/2000/svg">
<path d="M32.0002 106.667C27.5557 106.667 23.7779 105.111 20.6668 102C17.5557 98.8891 16.0002 95.1113 16.0002 90.6668H10.6668C9.15572 90.6668 7.88994 90.1548 6.8695 89.1308C5.84905 88.1068 5.33705 86.8411 5.3335 85.3335V32.0002C5.3335 29.0668 6.37883 26.5566 8.4695 24.4695C10.5602 22.3824 13.0704 21.3371 16.0002 21.3335H80.0002C82.9335 21.3335 85.4455 22.3788 87.5362 24.4695C89.6268 26.5602 90.6704 29.0704 90.6668 32.0002V42.6668H101.333C103.022 42.6668 104.622 43.0455 106.133 43.8028C107.645 44.5602 108.889 45.6037 109.867 46.9335L121.6 62.5335C121.956 62.9779 122.222 63.4668 122.4 64.0002C122.578 64.5335 122.667 65.1113 122.667 65.7335V85.3335C122.667 86.8446 122.155 88.1122 121.131 89.1362C120.107 90.1602 118.841 90.6704 117.333 90.6668H112C112 95.1113 110.445 98.8891 107.333 102C104.222 105.111 100.445 106.667 96.0002 106.667C91.5557 106.667 87.7779 105.111 84.6668 102C81.5557 98.8891 80.0002 95.1113 80.0002 90.6668H48.0002C48.0002 95.1113 46.4446 98.8891 43.3335 102C40.2224 105.111 36.4446 106.667 32.0002 106.667ZM32.0002 96.0002C33.5113 96.0002 34.7788 95.4882 35.8028 94.4642C36.8268 93.4402 37.3371 92.1744 37.3335 90.6668C37.3299 89.1593 36.8179 87.8935 35.7975 86.8695C34.7771 85.8455 33.5113 85.3335 32.0002 85.3335C30.4891 85.3335 29.2233 85.8455 28.2028 86.8695C27.1824 87.8935 26.6704 89.1593 26.6668 90.6668C26.6633 92.1744 27.1753 93.4419 28.2028 94.4695C29.2304 95.497 30.4962 96.0073 32.0002 96.0002ZM96.0002 96.0002C97.5113 96.0002 98.7788 95.4882 99.8028 94.4642C100.827 93.4402 101.337 92.1744 101.333 90.6668C101.33 89.1593 100.818 87.8935 99.7975 86.8695C98.7771 85.8455 97.5113 85.3335 96.0002 85.3335C94.4891 85.3335 93.2233 85.8455 92.2028 86.8695C91.1824 87.8935 90.6704 89.1593 90.6668 90.6668C90.6633 92.1744 91.1753 93.4419 92.2028 94.4695C93.2304 95.497 94.4962 96.0073 96.0002 96.0002ZM90.6668 69.3335H113.333L101.333 53.3335H90.6668V69.3335Z" fill="#056050"/>
</svg>
