<svg width="130" height="104" viewBox="0 0 130 104" fill="none" xmlns="http://www.w3.org/2000/svg">
<path d="M116.245 0.314941H13.2451C6.09949 0.314941 0.434492 6.04432 0.434492 13.1899L0.370117 90.4399C0.370117 97.5856 6.09949 103.315 13.2451 103.315H116.245C123.391 103.315 129.12 97.5856 129.12 90.4399V13.1899C129.12 6.04432 123.391 0.314941 116.245 0.314941ZM109.808 90.4399H19.6826C16.142 90.4399 13.2451 87.5431 13.2451 84.0024V51.8149H116.245V84.0024C116.245 87.5431 113.348 90.4399 109.808 90.4399ZM116.245 26.0649H13.2451V19.6274C13.2451 16.0868 16.142 13.1899 19.6826 13.1899H109.808C113.348 13.1899 116.245 16.0868 116.245 19.6274V26.0649Z" fill="#056050"/>
</svg>
