<svg width="36" height="36" viewBox="0 0 36 36" fill="none" xmlns="http://www.w3.org/2000/svg">
<path d="M28.8 28.8C29.7548 28.8 30.6705 29.1793 31.3456 29.8544C32.0207 30.5295 32.4 31.4452 32.4 32.4C32.4 33.3548 32.0207 34.2705 31.3456 34.9456C30.6705 35.6207 29.7548 36 28.8 36C27.8452 36 26.9295 35.6207 26.2544 34.9456C25.5793 34.2705 25.2 33.3548 25.2 32.4C25.2 30.402 26.802 28.8 28.8 28.8ZM0 0H5.886L7.578 3.6H34.2C34.6774 3.6 35.1352 3.78964 35.4728 4.12721C35.8104 4.46477 36 4.92261 36 5.4C36 5.706 35.91 6.012 35.784 6.3L29.34 17.946C28.728 19.044 27.54 19.8 26.19 19.8H12.78L11.16 22.734L11.106 22.95C11.106 23.0693 11.1534 23.1838 11.2378 23.2682C11.3222 23.3526 11.4367 23.4 11.556 23.4H32.4V27H10.8C9.84522 27 8.92955 26.6207 8.25442 25.9456C7.57928 25.2705 7.2 24.3548 7.2 23.4C7.2 22.77 7.362 22.176 7.632 21.672L10.08 17.262L3.6 3.6H0V0ZM10.8 28.8C11.7548 28.8 12.6705 29.1793 13.3456 29.8544C14.0207 30.5295 14.4 31.4452 14.4 32.4C14.4 33.3548 14.0207 34.2705 13.3456 34.9456C12.6705 35.6207 11.7548 36 10.8 36C9.84522 36 8.92955 35.6207 8.25442 34.9456C7.57928 34.2705 7.2 33.3548 7.2 32.4C7.2 30.402 8.802 28.8 10.8 28.8ZM27 16.2L32.004 7.2H9.252L13.5 16.2H27Z" fill="#056050"/>
</svg>
