<svg width="40" height="42" viewBox="0 0 40 42" fill="none" xmlns="http://www.w3.org/2000/svg">
<g filter="url(#filter0_d_1_483)">
<rect x="3" width="33.6375" height="36" rx="16.8187" fill="white"/>
<g clip-path="url(#clip0_1_483)">
<path fill-rule="evenodd" clip-rule="evenodd" d="M19.9999 20.2378L23.0933 23.3312C23.2575 23.4953 23.4801 23.5876 23.7123 23.5876C23.9444 23.5876 24.167 23.4953 24.3312 23.3312C24.4953 23.167 24.5875 22.9444 24.5875 22.7123C24.5875 22.4801 24.4953 22.2575 24.3312 22.0934L21.2366 18.9999L24.3306 15.9065C24.4118 15.8252 24.4763 15.7288 24.5202 15.6226C24.5642 15.5164 24.5868 15.4026 24.5868 15.2877C24.5867 15.1728 24.5641 15.059 24.5201 14.9528C24.4761 14.8467 24.4116 14.7502 24.3303 14.669C24.249 14.5877 24.1525 14.5233 24.0464 14.4794C23.9402 14.4354 23.8264 14.4128 23.7115 14.4128C23.5966 14.4129 23.4828 14.4355 23.3766 14.4795C23.2705 14.5235 23.174 14.588 23.0928 14.6693L19.9999 17.7627L16.9065 14.6693C16.8258 14.5857 16.7293 14.519 16.6226 14.4731C16.5159 14.4271 16.401 14.403 16.2849 14.4019C16.1687 14.4008 16.0535 14.4229 15.9459 14.4669C15.8383 14.5108 15.7406 14.5757 15.6584 14.6578C15.5762 14.74 15.5112 14.8376 15.4672 14.9451C15.4231 15.0527 15.4009 15.1679 15.4019 15.284C15.4028 15.4002 15.4269 15.5151 15.4727 15.6218C15.5185 15.7286 15.5851 15.8252 15.6687 15.9059L18.7633 18.9999L15.6693 22.0939C15.5857 22.1747 15.5191 22.2713 15.4733 22.3781C15.4275 22.4848 15.4034 22.5997 15.4025 22.7158C15.4015 22.832 15.4237 22.9472 15.4678 23.0547C15.5118 23.1623 15.5768 23.2599 15.659 23.342C15.7412 23.4242 15.8389 23.4891 15.9465 23.533C16.054 23.577 16.1693 23.5991 16.2855 23.598C16.4016 23.5969 16.5164 23.5727 16.6232 23.5268C16.7299 23.4809 16.8264 23.4142 16.9071 23.3306L19.9999 20.2378Z" fill="black"/>
</g>
</g>
<defs>
<filter id="filter0_d_1_483" x="0.0750003" y="0" width="39.4875" height="41.85" filterUnits="userSpaceOnUse" color-interpolation-filters="sRGB">
<feFlood flood-opacity="0" result="BackgroundImageFix"/>
<feColorMatrix in="SourceAlpha" type="matrix" values="0 0 0 0 0 0 0 0 0 0 0 0 0 0 0 0 0 0 127 0" result="hardAlpha"/>
<feOffset dy="2.925"/>
<feGaussianBlur stdDeviation="1.4625"/>
<feComposite in2="hardAlpha" operator="out"/>
<feColorMatrix type="matrix" values="0 0 0 0 0 0 0 0 0 0 0 0 0 0 0 0 0 0 0.25 0"/>
<feBlend mode="normal" in2="BackgroundImageFix" result="effect1_dropShadow_1_483"/>
<feBlend mode="normal" in="SourceGraphic" in2="effect1_dropShadow_1_483" result="shape"/>
</filter>
<clipPath id="clip0_1_483">
<rect width="14" height="14" fill="white" transform="translate(13 12)"/>
</clipPath>
</defs>
</svg>
