<svg width="5" height="5" viewBox="0 0 5 5" fill="none" xmlns="http://www.w3.org/2000/svg">
<path d="M3.31145 2.62458L2.2985 3.63753L1.28335 2.62458L1.59672 2.31341L2.2985 3.01519L3.00028 2.31341M4.28467 1.43067C4.28467 1.31362 4.23817 1.20135 4.15539 1.11858C4.07262 1.0358 3.96036 0.989304 3.8433 0.989304L0.753706 0.989304C0.636647 0.989304 0.524383 1.0358 0.44161 1.11858C0.358837 1.20135 0.312336 1.31362 0.312336 1.43067L0.312336 4.52027C0.312336 4.63732 0.358837 4.74959 0.44161 4.83236C0.524383 4.91513 0.636647 4.96164 0.753706 4.96164H3.8433C3.96036 4.96164 4.07262 4.91513 4.15539 4.83236C4.23817 4.74959 4.28467 4.63732 4.28467 4.52027L4.28467 1.43067Z" fill="#D9D9D9"/>
</svg>
