<svg width="5" height="5" viewBox="0 0 5 5" fill="none" xmlns="http://www.w3.org/2000/svg">
<path d="M1.2845 2.44308L2.29745 1.43013L3.3126 2.44308L2.99922 2.75424L2.29745 2.05246L1.59567 2.75424M0.311279 3.63698C0.311279 3.75404 0.357781 3.86631 0.440554 3.94908C0.523327 4.03185 0.635591 4.07835 0.75265 4.07835L3.84224 4.07835C3.9593 4.07835 4.07156 4.03185 4.15434 3.94908C4.23711 3.86631 4.28361 3.75404 4.28361 3.63698V0.547392C4.28361 0.430333 4.23711 0.318069 4.15434 0.235296C4.07156 0.152523 3.9593 0.106022 3.84224 0.106022L0.75265 0.106022C0.635591 0.106022 0.523327 0.152523 0.440554 0.235296C0.357781 0.318069 0.311279 0.430333 0.311279 0.547392L0.311279 3.63698Z" fill="#D9D9D9"/>
</svg>
