<svg width="26" height="23" viewBox="0 0 26 23" fill="none" xmlns="http://www.w3.org/2000/svg">
<path d="M23.4923 0.126051C23.1872 0.14825 22.8877 0.219829 22.6056 0.337998H22.6018C22.3309 0.445398 21.0431 0.987146 19.0852 1.80832L12.069 4.76323C7.03458 6.8827 2.08567 8.96986 2.08567 8.96986L2.14459 8.94705C2.14459 8.94705 1.80339 9.0592 1.44697 9.30346C1.22678 9.44357 1.03731 9.6269 0.890017 9.84236C0.715137 10.099 0.574472 10.4915 0.626746 10.8973C0.712285 11.5836 1.15709 11.9951 1.47644 12.2222C1.79958 12.4523 2.10753 12.5597 2.10753 12.5597H2.11513L6.75611 14.1231C6.96425 14.7913 8.17036 18.7565 8.46024 19.6699C8.63132 20.2154 8.79764 20.5566 9.00579 20.817C9.10654 20.9501 9.22439 21.0613 9.366 21.1506C9.43962 21.1935 9.51812 21.2273 9.59981 21.2514L9.55229 21.24C9.56655 21.2438 9.57795 21.2552 9.58841 21.259C9.62642 21.2695 9.65209 21.2733 9.70056 21.2809C10.4352 21.5033 11.0255 21.047 11.0255 21.047L11.0587 21.0204L13.7988 18.5255L18.3913 22.0488L18.4959 22.0935C19.453 22.5136 20.4224 22.2798 20.9347 21.8673C21.4508 21.4519 21.6513 20.9206 21.6513 20.9206L21.6846 20.8351L25.2335 2.65421C25.3343 2.20561 25.3599 1.78551 25.2487 1.37778C25.134 0.96512 24.8693 0.61021 24.5064 0.382669C24.2018 0.197443 23.8484 0.108039 23.4923 0.126051ZM23.3963 2.07445C23.3925 2.13432 23.4039 2.12767 23.3773 2.24267V2.25313L19.8617 20.2449C19.8465 20.2705 19.8208 20.3266 19.7505 20.3827C19.6763 20.4416 19.6174 20.4787 19.3085 20.3561L13.6914 16.0497L10.2984 19.1424L11.0112 14.5898L20.1886 6.03586C20.5669 5.6842 20.4405 5.61007 20.4405 5.61007C20.4671 5.17857 19.8693 5.48366 19.8693 5.48366L8.29676 12.6528L8.29296 12.6338L2.74622 10.7662V10.7624L2.73196 10.7595C2.74169 10.7563 2.75121 10.7525 2.76047 10.7481L2.79089 10.7329L2.82035 10.7225C2.82035 10.7225 7.77307 8.6353 12.8075 6.51583C15.3281 5.4542 17.8677 4.38495 19.8208 3.55998C20.9791 3.07241 22.1387 2.58768 23.2994 2.10581C23.3773 2.0754 23.3403 2.07445 23.3963 2.07445Z" fill="#056050"/>
</svg>
