<svg width="112" height="111" viewBox="0 0 112 111" fill="none" xmlns="http://www.w3.org/2000/svg">
<path d="M40.6354 19.512C47.5591 7.09587 51.0183 0.887817 56.1933 0.887817C61.3684 0.887817 64.8275 7.09587 71.7513 19.512L73.5437 22.7253C75.511 26.2556 76.4946 28.0207 78.0248 29.1847C79.5549 30.3487 81.4675 30.7804 85.2928 31.6439L88.7683 32.4308C102.211 35.4747 108.928 36.994 110.529 42.1364C112.124 47.2733 107.545 52.6343 98.3807 63.3508L96.009 66.1215C93.4078 69.1654 92.1018 70.6901 91.5171 72.57C90.9324 74.4554 91.1291 76.4883 91.5225 80.5487L91.8832 84.2484C93.2658 98.5498 93.9598 105.698 89.7738 108.873C85.5879 112.053 79.2926 109.152 66.7129 103.359L63.4504 101.862C59.8765 100.211 58.0896 99.3914 56.1933 99.3914C54.2971 99.3914 52.5101 100.211 48.9362 101.862L45.6793 103.359C33.0941 109.152 26.7988 112.048 22.6183 108.878C18.4269 105.698 19.1209 98.5498 20.5035 84.2484L20.8641 80.5541C21.2576 76.4883 21.4543 74.4554 20.8641 72.5755C20.2849 70.6901 18.9788 69.1654 16.3776 66.127L14.006 63.3508C4.84169 52.6398 0.26228 47.2788 1.85797 42.1364C3.45912 36.994 10.1807 35.4693 23.6238 32.4308L27.0994 31.6439C30.9192 30.7804 32.8263 30.3487 34.3619 29.1847C35.892 28.0207 36.8757 26.2556 38.843 22.7253L40.6354 19.512Z" fill="url(#paint0_diamond_1_433)" fill-opacity="0.7" stroke="#CDEFE9" stroke-width="1.63944"/>
<defs>
<radialGradient id="paint0_diamond_1_433" cx="0" cy="0" r="1" gradientUnits="userSpaceOnUse" gradientTransform="translate(56.1933 55.536) rotate(90) scale(54.6481)">
<stop stop-color="#CDEFE9"/>
<stop offset="1" stop-color="#29DEBE" stop-opacity="0.5"/>
</radialGradient>
</defs>
</svg>
