<svg width="128" height="128" viewBox="0 0 128 128" fill="none" xmlns="http://www.w3.org/2000/svg">
<path d="M112 65.1733C112 35.8933 89.2798 16 63.9998 16C38.9865 16 15.9998 35.4667 15.9998 65.4933C12.7998 67.3067 10.6665 70.72 10.6665 74.6667V85.3333C10.6665 91.2 15.4665 96 21.3332 96H26.6665V63.4667C26.6665 42.8267 43.3598 26.1333 63.9998 26.1333C84.6398 26.1333 101.333 42.8267 101.333 63.4667V101.333H58.6665V112H101.333C107.2 112 112 107.2 112 101.333V94.8267C115.147 93.1733 117.333 89.92 117.333 86.08V73.8133C117.333 70.08 115.147 66.8267 112 65.1733Z" fill="#056050"/>
<path d="M48.0001 74.6667C50.9456 74.6667 53.3334 72.2789 53.3334 69.3333C53.3334 66.3878 50.9456 64 48.0001 64C45.0546 64 42.6667 66.3878 42.6667 69.3333C42.6667 72.2789 45.0546 74.6667 48.0001 74.6667Z" fill="#056050"/>
<path d="M80.0001 74.6667C82.9456 74.6667 85.3334 72.2789 85.3334 69.3333C85.3334 66.3878 82.9456 64 80.0001 64C77.0546 64 74.6667 66.3878 74.6667 69.3333C74.6667 72.2789 77.0546 74.6667 80.0001 74.6667Z" fill="#056050"/>
<path d="M95.9998 58.8267C94.7281 51.3287 90.8446 44.5225 85.0368 39.6127C79.229 34.7029 71.8714 32.0062 64.2664 32C48.1064 32 30.7198 45.3867 32.1064 66.4C38.6831 63.7087 44.4917 59.4319 49.0143 53.9508C53.5369 48.4698 56.6329 41.9548 58.0264 34.9867C65.0131 49.0133 79.3598 58.6667 95.9998 58.8267Z" fill="#056050"/>
</svg>
